<?xml version="1.0" encoding="utf-8"?>
<!-- Generator: Adobe Illustrator 28.3.0, SVG Export Plug-In . SVG Version: 6.00 Build 0)  -->
<svg version="1.1" id="Layer_1" xmlns="http://www.w3.org/2000/svg" xmlns:xlink="http://www.w3.org/1999/xlink" x="0px" y="0px"
	 viewBox="0 0 573.3 100" style="enable-background:new 0 0 573.3 100;" xml:space="preserve">
<style type="text/css">
	.st0{fill:#FFFFFF;}
</style>
<g>
	<g>
		<path class="st0" d="M100,50c0-25-18.3-45.4-42.1-49.2c7.9,10.4,8.8,36.2,8.8,49.2c0,3.3,0,7.5-0.4,12.1
			C84.6,60.4,100,56.7,100,50z M62.5,50c0-24.2-3.8-50-12.5-50C22.5,0,0,22.5,0,50c0,8.8,25.8,12.5,50,12.5c4.2,0,8.3,0,12.1-0.4
			C62.5,58.3,62.5,54.2,62.5,50z M66.2,66.2c-0.8,12.1-2.9,25.8-7.9,33.3c20.8-3.7,37.5-20.4,40.8-41.7
			C92.1,62.9,78.3,65.4,66.2,66.2z M50,66.7c-12.9,0-38.8-0.8-49.2-8.8C4.6,81.7,25,100,50,100c6.7,0,10.4-15.4,12.1-33.8
			C57.5,66.7,53.3,66.7,50,66.7z"/>
	</g>
</g>
<g>
	<path class="st0" d="M186.2,38.8c-0.8-1.2-1.7-2.5-2.9-3.7c-1.2-1.3-2.5-2.9-4.2-4.2c-1.7-1.3-3.8-2.5-6.2-3.3
		c-2.5-0.8-5-1.3-8.3-1.3c-3.8,0-6.7,0.8-10,2.1c-2.5,0.8-5,2.9-7.1,5c-2.1,2.1-3.8,5-5,7.9c-1.2,2.9-1.7,5.8-1.7,9.2
		s0.4,6.2,1.7,9.2c1.2,2.9,2.9,5.4,5,7.9c2.1,2.1,4.6,4.2,7.9,5.4c3.3,1.2,6.2,2.1,10,2.1c2.9,0,5.8-0.4,8.3-1.2
		c2.5-0.8,4.6-2.1,6.2-3.3c1.7-1.2,3.3-2.9,4.2-4.2c0.8-1.2,2.1-2.5,2.5-3.8h8.7c-1.2,2.9-2.5,5.4-4.6,7.9c-2.1,2.5-4.2,4.6-6.7,6.7
		c-2.5,1.7-5.4,3.3-8.8,4.6c-3.3,1.2-6.7,1.7-10,1.7c-4.6,0-8.8-0.8-12.5-2.5c-3.8-1.7-7.5-4.2-10.4-7.1c-3.3-3.3-5.8-7.1-7.5-10.8
		c-1.7-3.8-2.5-7.9-2.5-12.5s0.8-8.3,2.5-12.5c1.7-3.8,4.2-7.5,7.1-10.4s6.2-5,10.4-7.1c3.8-1.7,8.3-2.5,12.5-2.5
		c3.8,0,7.1,0.4,10,1.7c3.3,1.3,6.2,2.5,8.8,4.6c2.5,2.1,5,4.2,6.7,6.7c1.7,2.5,3.3,5,4.6,7.9H186.2z"/>
	<path class="st0" d="M202.1,50.4c1.2-2.9,2.9-5.4,5-7.5c2.1-2.1,4.6-3.8,7.5-5s5.8-2.1,9.2-2.1s6.2,0.8,9.2,2.1s5.4,2.9,7.5,5
		s3.8,4.6,5,7.5c1.2,2.9,2.1,5.8,2.1,9.2c0,3.3-0.8,6.2-2.1,9.2c-1.2,2.9-2.9,5.4-5,7.5c-2.1,2.1-4.6,3.7-7.5,5s-5.8,2.1-9.2,2.1
		s-6.2-0.8-9.2-2.1s-5.4-2.9-7.5-5c-2.1-2.1-3.8-4.6-5-7.5c-1.2-2.9-2.1-5.8-2.1-9.2C200.4,56.2,200.8,53.3,202.1,50.4z M217.9,44.6
		c-2.1,0.8-3.8,2.1-5,3.3c-1.2,1.7-2.5,3.3-3.3,5c-0.8,1.7-1.2,4.2-1.2,6.2c0,2.1,0.4,4.6,1.2,6.2c0.8,1.7,2.1,3.8,3.3,5
		c1.2,1.2,3.3,2.5,5,3.3c2.1,0.8,4.2,1.2,6.2,1.2c2.1,0,4.2-0.4,6.2-1.2c2.1-0.8,3.8-2.1,5-3.3c1.2-1.2,2.5-3.3,3.3-5
		c0.8-2.1,1.2-4.2,1.2-6.2c0-2.1-0.4-4.2-1.2-6.2c-0.8-2.1-2.1-3.7-3.3-5c-1.7-1.3-3.3-2.5-5-3.3c-2.1-0.8-4.2-1.2-6.2-1.2
		C221.7,43.3,219.6,43.8,217.9,44.6z"/>
	<path class="st0" d="M295.4,82.1h-8.8V56.3c0-1.7-0.4-3.3-0.8-5c-0.4-1.7-1.7-2.9-2.5-4.2c-1.2-1.3-2.5-2.1-4.2-2.9
		c-1.7-0.8-3.3-1.2-5-1.2c-1.7,0-3.3,0.4-5,1.2c-1.7,0.8-2.9,1.7-4.2,2.9c-1.2,1.2-2.1,2.5-2.5,4.2c-0.4,1.7-0.8,3.3-0.8,5v25.8
		h-8.8V37.9h8.8v6.7c0,0,0.4-0.4,0.8-1.2c0.4-0.8,1.7-1.7,2.5-2.9c1.7-1.3,3.3-2.1,5-2.9c2.1-0.8,4.6-1.2,7.5-1.2
		c2.5,0,5,0.4,7.1,1.7c2.1,0.8,4.2,2.5,5.8,3.8c1.7,1.7,2.9,3.3,3.8,5.4c0.8,2.1,1.2,4.2,1.2,6.2C295.4,53.3,295.4,82.1,295.4,82.1z
		"/>
	<path class="st0" d="M343.3,82.1h-8.7V56.3c0-1.7-0.4-3.3-0.8-5c-0.4-1.7-1.7-2.9-2.5-4.2c-1.3-1.3-2.5-2.1-4.2-2.9
		c-1.7-0.8-3.3-1.2-5-1.2c-1.7,0-3.3,0.4-5,1.2s-2.9,1.7-4.2,2.9c-1.3,1.2-2.1,2.5-2.5,4.2c-0.4,1.7-0.8,3.3-0.8,5v25.8h-8.8V37.9
		h8.8v6.7c0,0,0.4-0.4,0.8-1.2s1.7-1.7,2.5-2.9c1.2-1.3,2.9-2.1,5-2.9c2.1-0.8,4.6-1.2,7.5-1.2c2.5,0,5,0.4,7.1,1.7
		c2.1,0.8,4.2,2.5,5.8,3.8c1.7,1.7,2.9,3.3,3.8,5.4c0.8,2.1,1.2,4.2,1.2,6.2C343.3,53.3,343.3,82.1,343.3,82.1z"/>
	<path class="st0" d="M355.8,63.3c0.4,1.7,0.8,3.3,1.7,5c0.8,1.7,2.1,2.9,3.3,4.2c1.2,1.2,2.9,2.1,4.6,2.9c1.7,0.8,3.8,0.8,6.2,0.8
		c1.7,0,3.3-0.4,5-0.8c1.7-0.4,2.9-1.2,4.2-2.1c1.3-0.8,2.1-1.7,2.9-2.9c0.8-0.8,1.3-2.1,1.7-2.9h7.9c-1.7,4.6-4.6,8.3-8.3,11.3
		s-8.3,4.6-13.8,4.6c-3.3,0-6.2-0.4-9.2-1.7c-2.9-1.2-5.4-2.9-7.5-5s-3.8-4.6-5-7.5c-1.2-2.9-1.7-5.8-1.7-9.2c0-3.3,0.4-6.2,1.7-9.2
		c1.3-2.9,2.9-5.4,5-7.5s4.6-3.8,7.5-5c2.9-1.2,5.8-1.7,9.2-1.7c3.3,0,6.7,0.8,10,2.1c3.3,1.7,6.2,3.8,8.3,6.7
		c1.7,2.5,3.3,5,4.2,7.9c0.8,2.9,1.2,6.2,0.8,10C394.6,63.3,355.8,63.3,355.8,63.3z M387.9,57.1c-0.4-2.1-1.3-3.7-2.1-5.4
		c-0.8-1.7-2.1-2.9-3.8-4.2c-1.3-1.3-2.9-2.1-4.6-2.5c-1.7-0.4-3.3-0.8-5.4-0.8c-4.2,0-7.5,1.2-10.4,3.8s-4.6,5.8-5.4,9.2
		C356.2,57.1,387.9,57.1,387.9,57.1z"/>
	<path class="st0" d="M436.7,52.1c-0.4-0.8-0.8-1.7-1.7-2.5c-0.8-0.8-1.7-1.7-2.9-2.5c-1.3-0.8-2.5-1.7-4.2-2.1
		c-1.7-0.4-3.3-0.8-5-0.8c-1.7,0-3.8,0.4-5.4,1.2c-1.7,0.8-3.8,1.7-5,2.9c-1.7,1.2-2.9,2.9-3.8,5c-0.8,2.1-1.7,4.2-1.7,6.7
		c0,2.5,0.4,5,1.7,7.1c0.8,2.1,2.5,3.8,3.8,5c1.7,1.2,3.3,2.5,5,2.9c1.7,0.8,3.8,0.8,5.4,0.8c1.7,0,3.3-0.4,5-0.8
		c1.7-0.4,2.9-1.2,3.8-2.1c1.2-0.8,2.1-1.7,2.9-2.5c0.8-0.8,1.7-2.1,2.1-2.9h8.3c-1.7,4.6-4.6,8.3-8.3,11.3s-8.3,4.6-13.8,4.6
		c-3.3,0-6.2-0.4-9.2-1.7c-2.9-1.2-5.4-2.9-7.5-5c-2.1-2.1-3.8-4.6-5-7.5c-1.2-2.9-1.7-5.8-1.7-9.2c0-3.3,0.4-6.2,1.7-9.2
		c1.2-2.9,2.9-5.4,5-7.5c2.1-2.1,4.6-3.8,7.5-5c2.9-1.2,5.8-1.7,9.2-1.7c2.5,0,5,0.4,7.5,1.2s4.6,2.1,6.7,3.3c2.1,1.7,3.3,3.3,5,5
		c1.2,2.1,2.5,3.7,3.3,5.8C445.4,52.1,436.7,52.1,436.7,52.1z"/>
	<path class="st0" d="M462.5,81.2h-8.8V44.2h-9.2v-7.1h9.2V19.6h8.8v17.5h9.2v7.1h-9.2V81.2z"/>
	<path class="st0" d="M480,63.3c0.4,1.7,0.8,3.3,1.7,5c0.8,1.7,2.1,2.9,3.3,4.2c1.2,1.2,2.9,2.1,4.6,2.9c1.7,0.8,3.8,0.8,6.2,0.8
		c1.7,0,3.3-0.4,5-0.8c1.7-0.4,2.9-1.2,4.2-2.1c1.3-0.8,2.1-1.7,2.9-2.9c0.8-0.8,1.2-2.1,1.7-2.9h7.9c-1.7,4.6-4.6,8.3-8.3,11.3
		s-8.3,4.6-13.8,4.6c-3.3,0-6.2-0.4-9.2-1.7c-2.9-1.2-5.4-2.9-7.5-5c-2.1-2.1-3.8-4.6-5-7.5c-1.2-2.9-1.7-5.8-1.7-9.2
		c0-3.3,0.4-6.2,1.7-9.2c1.3-2.9,2.9-5.4,5-7.5c2.1-2.1,4.6-3.8,7.5-5c2.9-1.2,5.8-1.7,9.2-1.7c3.3,0,6.7,0.8,10,2.1
		c3.3,1.7,6.2,3.8,8.3,6.7c1.7,2.5,3.3,5,4.2,7.9c0.8,2.9,1.2,6.2,0.8,10C518.7,63.3,480,63.3,480,63.3z M511.7,57.1
		c-0.4-2.1-1.2-3.7-2.1-5.4c-0.8-1.7-2.1-2.9-3.8-4.2c-1.2-1.3-2.9-2.1-4.6-2.5c-1.7-0.4-3.3-0.8-5.4-0.8c-4.2,0-7.5,1.2-10.4,3.8
		s-4.6,5.8-5.4,9.2C480,57.1,511.7,57.1,511.7,57.1z"/>
	<path class="st0" d="M564.2,74.6c-2.1,2.9-5,4.6-7.5,6.2c-2.9,1.2-6.2,2.1-10.4,2.1c-2.9,0-5.4-0.4-8.3-1.7c-2.9-1.2-5-2.5-7.5-4.6
		c-2.1-2.1-4.2-4.6-5.4-7.5c-1.2-2.9-2.1-6.3-2.1-9.6c0-3.8,0.8-6.7,2.1-9.6s2.9-5.4,5.4-7.5c2.1-2.1,4.6-3.8,7.5-4.6
		s5.4-1.7,8.3-1.7c3.8,0,7.1,0.8,10.4,2.1c3.3,1.2,5.8,3.3,7.9,5.8V19.6h8.8v61.2h-9.2V74.6z M532.9,65.4c0.8,2.1,2.1,3.8,3.3,5.4
		c1.7,1.7,3.3,2.5,5.4,3.3c2.1,0.8,4.2,1.2,6.2,1.2c2.1,0,4.2-0.4,6.2-1.2c2.1-0.8,3.8-2.1,5.4-3.3c1.7-1.7,2.5-3.3,3.8-5.4
		c0.8-2.1,1.2-4.2,1.2-6.7c0-2.1-0.4-4.2-1.2-6.2c-0.8-2.1-2.1-3.7-3.3-5.4c-1.7-1.7-3.3-2.5-5.4-3.7c-2.1-0.8-4.2-1.2-6.2-1.2
		c-2.1,0-4.6,0.4-6.2,1.2c-2.1,0.8-3.8,2.1-5.4,3.3c-1.7,1.7-2.5,3.3-3.3,5.4c-0.8,2.1-1.2,4.2-1.2,6.2
		C531.7,61.2,532.1,63.8,532.9,65.4z"/>
</g>
</svg>
