<?xml version="1.0" encoding="utf-8"?>
<!-- Generator: Adobe Illustrator 28.3.0, SVG Export Plug-In . SVG Version: 6.00 Build 0)  -->
<svg version="1.1" id="Layer_1" xmlns="http://www.w3.org/2000/svg" xmlns:xlink="http://www.w3.org/1999/xlink" x="0px" y="0px"
	 viewBox="0 0 100 100" style="enable-background:new 0 0 100 100;" xml:space="preserve">
<g>
	<g>
		<path d="M100,50c0-25-18.3-45.4-42.1-49.2c7.9,10.4,8.8,36.2,8.8,49.2c0,3.3,0,7.5-0.4,12.1C84.6,60.4,100,56.7,100,50z M62.5,50
			c0-24.2-3.8-50-12.5-50C22.5,0,0,22.5,0,50c0,8.8,25.8,12.5,50,12.5c4.2,0,8.3,0,12.1-0.4C62.5,58.3,62.5,54.2,62.5,50z
			 M66.2,66.2c-0.8,12.1-2.9,25.8-7.9,33.3c20.8-3.7,37.5-20.4,40.8-41.7C92.1,62.9,78.3,65.4,66.2,66.2z M50,66.7
			c-12.9,0-38.8-0.8-49.2-8.8C4.6,81.7,25,100,50,100c6.7,0,10.4-15.4,12.1-33.8C57.5,66.7,53.3,66.7,50,66.7z"/>
	</g>
</g>
</svg>
