<?xml version="1.0" encoding="utf-8"?>
<!-- Generator: Adobe Illustrator 28.3.0, SVG Export Plug-In . SVG Version: 6.00 Build 0)  -->
<svg version="1.1" id="Layer_1" xmlns="http://www.w3.org/2000/svg" xmlns:xlink="http://www.w3.org/1999/xlink" x="0px" y="0px"
	 viewBox="0 0 441.1 65.4" style="enable-background:new 0 0 441.1 65.4;" xml:space="preserve">
<g>
	<path d="M53.9,20.7c-0.8-1.2-1.7-2.5-2.9-3.7c-1.2-1.3-2.5-2.9-4.2-4.2s-3.8-2.5-6.2-3.3c-2.5-0.8-5-1.3-8.3-1.3
		c-3.8,0-6.7,0.8-10,2.1c-2.5,0.8-5,2.9-7.1,5c-2.1,2.1-3.8,5-5,7.9S8.5,29,8.5,32.4s0.4,6.2,1.7,9.2c1.2,2.9,2.9,5.4,5,7.9
		c2.1,2.1,4.6,4.2,7.9,5.4c3.3,1.2,6.2,2.1,10,2.1c2.9,0,5.8-0.4,8.3-1.2c2.5-0.8,4.6-2.1,6.2-3.3c1.7-1.2,3.3-2.9,4.2-4.2
		c0.8-1.2,2.1-2.5,2.5-3.8H63c-1.2,2.9-2.5,5.4-4.6,7.9s-4.2,4.6-6.7,6.7c-2.5,1.7-5.4,3.3-8.8,4.6c-3.3,1.2-6.7,1.7-10,1.7
		c-4.6,0-8.8-0.8-12.5-2.5c-3.8-1.7-7.5-4.2-10.4-7.1C6.7,52.5,4.2,48.7,2.5,45C0.8,41.2,0,37.1,0,32.5S0.8,24.2,2.5,20
		c1.7-3.8,4.2-7.5,7.1-10.4s6.2-5,10.4-7.1C23.8,0.8,28.3,0,32.5,0c3.8,0,7.1,0.4,10,1.7c3.3,1.3,6.2,2.5,8.8,4.6
		c2.5,2.1,5,4.2,6.7,6.7s3.3,5,4.6,7.9h-8.7V20.7z"/>
	<path d="M69.8,32.3c1.2-2.9,2.9-5.4,5-7.5s4.6-3.8,7.5-5s5.8-2.1,9.2-2.1s6.2,0.8,9.2,2.1s5.4,2.9,7.5,5s3.8,4.6,5,7.5
		s2.1,5.8,2.1,9.2c0,3.3-0.8,6.2-2.1,9.2c-1.2,2.9-2.9,5.4-5,7.5s-4.6,3.7-7.5,5c-2.9,1.3-5.8,2.1-9.2,2.1s-6.2-0.8-9.2-2.1
		c-3-1.3-5.4-2.9-7.5-5s-3.8-4.6-5-7.5s-2.1-5.8-2.1-9.2C68.1,38.1,68.5,35.2,69.8,32.3z M85.6,26.5c-2.1,0.8-3.8,2.1-5,3.3
		c-1.2,1.7-2.5,3.3-3.3,5S76.1,39,76.1,41c0,2.1,0.4,4.6,1.2,6.2c0.8,1.7,2.1,3.8,3.3,5s3.3,2.5,5,3.3c2.1,0.8,4.2,1.2,6.2,1.2
		c2.1,0,4.2-0.4,6.2-1.2c2.1-0.8,3.8-2.1,5-3.3c1.2-1.2,2.5-3.3,3.3-5c0.8-2.1,1.2-4.2,1.2-6.2c0-2.1-0.4-4.2-1.2-6.2
		c-0.8-2.1-2.1-3.7-3.3-5c-1.7-1.3-3.3-2.5-5-3.3c-2.1-0.8-4.2-1.2-6.2-1.2C89.4,25.2,87.3,25.7,85.6,26.5z"/>
	<path d="M163.1,64h-8.8V38.2c0-1.7-0.4-3.3-0.8-5s-1.7-2.9-2.5-4.2c-1.2-1.3-2.5-2.1-4.2-2.9c-1.7-0.8-3.3-1.2-5-1.2
		s-3.3,0.4-5,1.2s-2.9,1.7-4.2,2.9c-1.2,1.2-2.1,2.5-2.5,4.2s-0.8,3.3-0.8,5V64h-8.8V19.8h8.8v6.7c0,0,0.4-0.4,0.8-1.2
		s1.7-1.7,2.5-2.9c1.7-1.3,3.3-2.1,5-2.9c2.1-0.8,4.6-1.2,7.5-1.2c2.5,0,5,0.4,7.1,1.7c2.1,0.8,4.2,2.5,5.8,3.8
		c1.7,1.7,2.9,3.3,3.8,5.4c0.8,2.1,1.2,4.2,1.2,6.2C163.1,35.2,163.1,64,163.1,64z"/>
	<path d="M211,64h-8.7V38.2c0-1.7-0.4-3.3-0.8-5s-1.7-2.9-2.5-4.2c-1.3-1.3-2.5-2.1-4.2-2.9c-1.7-0.8-3.3-1.2-5-1.2s-3.3,0.4-5,1.2
		s-2.9,1.7-4.2,2.9c-1.3,1.2-2.1,2.5-2.5,4.2s-0.8,3.3-0.8,5V64h-8.8V19.8h8.8v6.7c0,0,0.4-0.4,0.8-1.2s1.7-1.7,2.5-2.9
		c1.2-1.3,2.9-2.1,5-2.9c2.1-0.8,4.6-1.2,7.5-1.2c2.5,0,5,0.4,7.1,1.7c2.1,0.8,4.2,2.5,5.8,3.8c1.7,1.7,2.9,3.3,3.8,5.4
		c0.8,2.1,1.2,4.2,1.2,6.2C211,35.2,211,64,211,64z"/>
	<path d="M223.5,45.2c0.4,1.7,0.8,3.3,1.7,5c0.8,1.7,2.1,2.9,3.3,4.2c1.2,1.2,2.9,2.1,4.6,2.9s3.8,0.8,6.2,0.8c1.7,0,3.3-0.4,5-0.8
		s2.9-1.2,4.2-2.1c1.3-0.8,2.1-1.7,2.9-2.9c0.8-0.8,1.3-2.1,1.7-2.9h7.9c-1.7,4.6-4.6,8.3-8.3,11.3s-8.3,4.6-13.8,4.6
		c-3.3,0-6.2-0.4-9.2-1.7c-2.9-1.2-5.4-2.9-7.5-5s-3.8-4.6-5-7.5s-1.7-5.8-1.7-9.2c0-3.3,0.4-6.2,1.7-9.2c1.3-2.9,2.9-5.4,5-7.5
		s4.6-3.8,7.5-5s5.8-1.7,9.2-1.7c3.3,0,6.7,0.8,10,2.1c3.3,1.7,6.2,3.8,8.3,6.7c1.7,2.5,3.3,5,4.2,7.9c0.8,2.9,1.2,6.2,0.8,10
		C262.3,45.2,223.5,45.2,223.5,45.2z M255.6,39c-0.4-2.1-1.3-3.7-2.1-5.4c-0.8-1.7-2.1-2.9-3.8-4.2c-1.3-1.3-2.9-2.1-4.6-2.5
		s-3.3-0.8-5.4-0.8c-4.2,0-7.5,1.2-10.4,3.8s-4.6,5.8-5.4,9.2C223.9,39,255.6,39,255.6,39z"/>
	<path d="M304.4,34c-0.4-0.8-0.8-1.7-1.7-2.5c-0.8-0.8-1.7-1.7-2.9-2.5c-1.3-0.8-2.5-1.7-4.2-2.1c-1.7-0.4-3.3-0.8-5-0.8
		s-3.8,0.4-5.4,1.2c-1.7,0.8-3.8,1.7-5,2.9c-1.7,1.2-2.9,2.9-3.8,5c-0.8,2.1-1.7,4.2-1.7,6.7s0.4,5,1.7,7.1c0.8,2.1,2.5,3.8,3.8,5
		c1.7,1.2,3.3,2.5,5,2.9c1.7,0.8,3.8,0.8,5.4,0.8c1.7,0,3.3-0.4,5-0.8s2.9-1.2,3.8-2.1c1.2-0.8,2.1-1.7,2.9-2.5s1.7-2.1,2.1-2.9h8.3
		c-1.7,4.6-4.6,8.3-8.3,11.3s-8.3,4.6-13.8,4.6c-3.3,0-6.2-0.4-9.2-1.7c-2.9-1.2-5.4-2.9-7.5-5s-3.8-4.6-5-7.5s-1.7-5.8-1.7-9.2
		c0-3.3,0.4-6.2,1.7-9.2c1.2-2.9,2.9-5.4,5-7.5s4.6-3.8,7.5-5s5.8-1.7,9.2-1.7c2.5,0,5,0.4,7.5,1.2s4.6,2.1,6.7,3.3
		c2.1,1.7,3.3,3.3,5,5c1.2,2.1,2.5,3.7,3.3,5.8C313.1,34,304.4,34,304.4,34z"/>
	<path d="M330.2,63.1h-8.8v-37h-9.2V19h9.2V1.5h8.8V19h9.2v7.1h-9.2V63.1z"/>
	<path d="M347.7,45.2c0.4,1.7,0.8,3.3,1.7,5c0.8,1.7,2.1,2.9,3.3,4.2c1.2,1.2,2.9,2.1,4.6,2.9s3.8,0.8,6.2,0.8c1.7,0,3.3-0.4,5-0.8
		s2.9-1.2,4.2-2.1c1.3-0.8,2.1-1.7,2.9-2.9c0.8-0.8,1.2-2.1,1.7-2.9h7.9c-1.7,4.6-4.6,8.3-8.3,11.3s-8.3,4.6-13.8,4.6
		c-3.3,0-6.2-0.4-9.2-1.7c-2.9-1.2-5.4-2.9-7.5-5s-3.8-4.6-5-7.5s-1.7-5.8-1.7-9.2c0-3.3,0.4-6.2,1.7-9.2c1.3-2.9,2.9-5.4,5-7.5
		s4.6-3.8,7.5-5s5.8-1.7,9.2-1.7c3.3,0,6.7,0.8,10,2.1c3.3,1.7,6.2,3.8,8.3,6.7c1.7,2.5,3.3,5,4.2,7.9c0.8,2.9,1.2,6.2,0.8,10
		C386.4,45.2,347.7,45.2,347.7,45.2z M379.4,39c-0.4-2.1-1.2-3.7-2.1-5.4c-0.8-1.7-2.1-2.9-3.8-4.2c-1.2-1.3-2.9-2.1-4.6-2.5
		s-3.3-0.8-5.4-0.8c-4.2,0-7.5,1.2-10.4,3.8s-4.6,5.8-5.4,9.2C347.7,39,379.4,39,379.4,39z"/>
	<path d="M431.9,56.5c-2.1,2.9-5,4.6-7.5,6.2c-2.9,1.2-6.2,2.1-10.4,2.1c-2.9,0-5.4-0.4-8.3-1.7c-2.9-1.2-5-2.5-7.5-4.6
		c-2.1-2.1-4.2-4.6-5.4-7.5s-2.1-6.3-2.1-9.6c0-3.8,0.8-6.7,2.1-9.6s2.9-5.4,5.4-7.5c2.1-2.1,4.6-3.8,7.5-4.6s5.4-1.7,8.3-1.7
		c3.8,0,7.1,0.8,10.4,2.1c3.3,1.2,5.8,3.3,7.9,5.8V1.5h8.8v61.2h-9.2V56.5z M400.6,47.3c0.8,2.1,2.1,3.8,3.3,5.4
		c1.7,1.7,3.3,2.5,5.4,3.3c2.1,0.8,4.2,1.2,6.2,1.2c2.1,0,4.2-0.4,6.2-1.2c2.1-0.8,3.8-2.1,5.4-3.3c1.7-1.7,2.5-3.3,3.8-5.4
		c0.8-2.1,1.2-4.2,1.2-6.7c0-2.1-0.4-4.2-1.2-6.2c-0.8-2.1-2.1-3.7-3.3-5.4c-1.7-1.7-3.3-2.5-5.4-3.7c-2.1-0.8-4.2-1.2-6.2-1.2
		c-2.1,0-4.6,0.4-6.2,1.2c-2.1,0.8-3.8,2.1-5.4,3.3c-1.7,1.7-2.5,3.3-3.3,5.4c-0.8,2.1-1.2,4.2-1.2,6.2
		C399.4,43.1,399.8,45.7,400.6,47.3z"/>
</g>
</svg>
