<?xml version="1.0" encoding="utf-8"?>
<!-- Generator: Adobe Illustrator 27.3.1, SVG Export Plug-In . SVG Version: 6.00 Build 0)  -->
<svg version="1.1" id="Layer_1" xmlns="http://www.w3.org/2000/svg" xmlns:xlink="http://www.w3.org/1999/xlink" x="0px" y="0px"
	 viewBox="0 0 24 24" style="enable-background:new 0 0 24 24;" xml:space="preserve">
<style type="text/css">
	.st0{fill:#FFFFFF;}
</style>
<g>
	<g>
		<path class="st0" d="M24,12c0-6-4.4-10.9-10.1-11.8C15.8,2.7,16,8.9,16,12c0,0.8,0,1.8-0.1,2.9C20.3,14.5,24,13.6,24,12z M15,12
			c0-5.8-0.9-12-3-12C5.4,0,0,5.4,0,12c0,2.1,6.2,3,12,3c1,0,2,0,2.9-0.1C15,14,15,13,15,12z M15.9,15.9c-0.2,2.9-0.7,6.2-1.9,8
			c5-0.9,9-4.9,9.8-10C22.1,15.1,18.8,15.7,15.9,15.9z M12,16c-3.1,0-9.3-0.2-11.8-2.1C1.1,19.6,6,24,12,24c1.6,0,2.5-3.7,2.9-8.1
			C13.8,16,12.8,16,12,16z"/>
	</g>
</g>
</svg>
