<svg version="1.1" viewBox="0 0 100 100">
    <circle fill="none" stroke="currentColor" stroke-width="6" cx="50" cy="50" r="47" />
    <path fill-rule="evenodd" clip-rule="evenodd" fill="none" stroke="currentColor" stroke-miterlimit="10" d="M61.2,13.1" />
    <path fill-rule="evenodd" clip-rule="evenodd" fill="none" stroke="currentColor" stroke-width="6" stroke-linecap="round" stroke-linejoin="round" stroke-miterlimit="10" d="M96.1,53c-4.7,4.4-21,6.9-35,8.2" />
    <path fill-rule="evenodd" clip-rule="evenodd" fill="none" stroke="currentColor" stroke-miterlimit="10" d="M49.9,3.9" />
    <path fill-rule="evenodd" clip-rule="evenodd" fill="none" stroke="currentColor" stroke-width="6" stroke-linecap="round" stroke-linejoin="round" stroke-miterlimit="10" d="M53.1,3.9c5.2,6.4,8.3,27.9,8.3,46.2c0,3.9,0,7.7-0.4,11.2c-3.5,0.4-7.3,0.4-11.2,0.4c-18,0-37-2.2-43.7-7.3 C4.6,53.1,3,51.6,3,50" />
    <path fill-rule="evenodd" clip-rule="evenodd" fill="none" stroke="currentColor" stroke-miterlimit="10" d="M4.4,57.4" />
    <path fill-rule="evenodd" clip-rule="evenodd" fill="none" stroke="currentColor" stroke-width="6" stroke-linecap="round" stroke-linejoin="round" stroke-miterlimit="10" d="M61.1,61.3c-1.3,14.1-5,31.4-9.4,35.1" />
    <path fill="none" stroke="currentColor" stroke-miterlimit="10" d="M58.3,5.7" />
    <path fill="none" stroke="currentColor" stroke-linecap="round" stroke-miterlimit="10" d="M53.1,5.1" />
    <path fill="none" stroke="currentColor" stroke-miterlimit="10" d="M58.9,94.1" />
    <path fill="none" stroke="currentColor" stroke-miterlimit="10" d="M53.1,95.1" />
    <path fill-rule="evenodd" clip-rule="evenodd" fill="none" stroke="currentColor" stroke-miterlimit="10" d="M61.1,61.3" />
    <path fill-rule="evenodd" clip-rule="evenodd" fill="none" stroke="currentColor" stroke-miterlimit="10" d="M66.4,61.1" />
    <path fill-rule="evenodd" clip-rule="evenodd" fill="none" stroke="currentColor" stroke-miterlimit="10" d="M53.1,95.1" />
</svg>
